<svg width="241" height="118" viewBox="0 0 241 118" fill="none" xmlns="http://www.w3.org/2000/svg">
<path d="M14.125 59.125C14.125 31.5108 36.5108 9.125 64.125 9.125H240.125V117.125H14.125V59.125Z" fill="#F2F4F8"/>
<path d="M59.3252 34.3516C58.7785 34.0583 57.6318 33.7516 56.0718 34.8449L54.1118 36.2316C53.9652 32.0849 52.1652 30.4583 47.7918 30.4583H39.7918C35.2318 30.4583 33.4585 32.2316 33.4585 36.7916V47.4583C33.4585 50.5249 35.1252 53.7916 39.7918 53.7916H47.7918C52.1652 53.7916 53.9652 52.1649 54.1118 48.0183L56.0718 49.4049C56.8985 49.9916 57.6185 50.1783 58.1918 50.1783C58.6852 50.1783 59.0718 50.0316 59.3252 49.8983C59.8718 49.6182 60.7918 48.8583 60.7918 46.9516V37.2983C60.7918 35.3916 59.8718 34.6316 59.3252 34.3516ZM45.7918 41.2983C44.4185 41.2983 43.2852 40.1783 43.2852 38.7916C43.2852 37.4049 44.4185 36.2849 45.7918 36.2849C47.1652 36.2849 48.2985 37.4049 48.2985 38.7916C48.2985 40.1783 47.1652 41.2983 45.7918 41.2983Z" fill="white"/>
<g opacity="0.4" filter="url(#filter0_f_11_4486)">
<circle cx="47.125" cy="47.125" r="33" fill="#5EABD6"/>
</g>
<circle cx="47.125" cy="42.125" r="33" fill="#56B8FF"/>
<path d="M39.4561 50.6329C38.412 50.6311 37.3948 50.3079 36.5476 49.7088C35.7004 49.1098 35.0658 48.265 34.7331 47.2934L34.6864 47.1429C34.537 46.684 34.4593 46.2056 34.4557 45.7238V36.7985L31.2208 47.3995C31.0228 48.1538 31.1343 48.9543 31.5313 49.6288C31.9283 50.3032 32.5791 50.7978 33.3436 51.006L53.9626 56.427C54.22 56.4924 54.4774 56.5238 54.7307 56.5238C56.0588 56.5238 57.2723 55.6585 57.6123 54.3835L58.8137 50.6329H39.4561ZM43.1231 36.8875C44.5939 36.8875 45.79 35.7132 45.79 34.2693C45.79 32.8254 44.5939 31.6511 43.1231 31.6511C41.6523 31.6511 40.4562 32.8254 40.4562 34.2693C40.4562 35.7132 41.6523 36.8875 43.1231 36.8875Z" fill="white"/>
<path d="M59.7913 27.7239H39.7897C38.9059 27.7249 38.0586 28.0701 37.4336 28.6836C36.8087 29.2971 36.4571 30.1289 36.4561 30.9966V45.3966C36.4561 47.2005 37.9522 48.6693 39.7897 48.6693H59.7913C61.6288 48.6693 63.1249 47.2005 63.1249 45.3966V30.9966C63.1249 29.1927 61.6288 27.7239 59.7913 27.7239ZM39.7897 30.3421H59.7913C59.9681 30.3421 60.1377 30.411 60.2627 30.5338C60.3878 30.6565 60.458 30.823 60.458 30.9966V40.2898L56.2457 35.4645C56.0229 35.2134 55.7483 35.0117 55.44 34.8728C55.1316 34.734 54.7967 34.6613 54.4575 34.6594C54.1172 34.6612 53.7813 34.736 53.4736 34.8787C53.1658 35.0214 52.8936 35.2285 52.676 35.4855L47.7236 41.3214L46.1102 39.7413C45.6714 39.3113 45.0767 39.0697 44.4567 39.0697C43.8367 39.0697 43.242 39.3113 42.8032 39.7413L39.1229 43.3531V30.9966C39.1229 30.823 39.1932 30.6565 39.3182 30.5338C39.4433 30.411 39.6128 30.3421 39.7897 30.3421Z" fill="white"/>
<mask id="mask0_11_4486" style="mask-type:alpha" maskUnits="userSpaceOnUse" x="14" y="31" width="227" height="87">
<rect x="14.125" y="31.125" width="226" height="86" fill="#D9D9D9"/>
</mask>
<g mask="url(#mask0_11_4486)">
<path d="M14.2575 131.806V113.229C13.4523 104.596 15.4226 87.4703 45.961 85.338C74.0092 83.3796 79.9784 79.4261 94.6779 53.6553C106.778 32.4422 125.251 32.0404 142.168 31.6725C144.384 31.6243 146.574 31.5767 148.719 31.4829C160.088 30.986 197.206 30.9268 222.625 31.1253C251.125 31.1248 240.125 28.8348 240.125 39.6255V223.412C240.125 234.299 231.271 243.125 220.35 243.125H33.9C22.9786 243.125 14.125 234.299 14.125 223.412V131.806H14.2575Z" fill="white"/>
</g>
<defs>
<filter id="filter0_f_11_4486" x="0" y="0" width="94.25" height="94.25" filterUnits="userSpaceOnUse" color-interpolation-filters="sRGB">
<feFlood flood-opacity="0" result="BackgroundImageFix"/>
<feBlend mode="normal" in="SourceGraphic" in2="BackgroundImageFix" result="shape"/>
<feGaussianBlur stdDeviation="7.0625" result="effect1_foregroundBlur_11_4486"/>
</filter>
</defs>
</svg>
