<svg width="241" height="118" viewBox="0 0 241 118" fill="none" xmlns="http://www.w3.org/2000/svg">
<path d="M14.125 59.125C14.125 31.5108 36.5108 9.125 64.125 9.125H240.125V117.125H14.125V59.125Z" fill="#F2F4F8"/>
<g opacity="0.4" filter="url(#filter0_f_11_4461)">
<circle cx="47.125" cy="47.125" r="33" fill="#EA9E8D"/>
</g>
<circle cx="47.125" cy="42.125" r="33" fill="#EA9E8D"/>
<path d="M57.0381 31.5044C57.2145 31.7816 56.9123 32.1046 56.5919 32.0317C55.9653 31.8451 55.2719 31.7517 54.5653 31.7517H50.2239C49.9771 31.7517 49.7447 31.6357 49.5965 31.4384L48.0986 29.4451C47.9108 29.179 48.0883 28.7917 48.414 28.7917H52.0853C54.1666 28.7917 56 29.8727 57.0381 31.5044Z" fill="white"/>
<path d="M57.9784 34.8451C57.4051 34.4317 56.7517 34.1251 56.0451 33.9517C55.5651 33.8184 55.0717 33.7517 54.5651 33.7517H49.6051C48.8317 33.7517 48.7784 33.6851 48.3651 33.1384L46.4984 30.6584C45.6317 29.4984 44.9517 28.7917 42.7784 28.7917H39.6851C36.4317 28.7917 33.7917 31.4317 33.7917 34.6851V49.5651C33.7917 52.8184 36.4317 55.4584 39.6851 55.4584H54.5651C57.8184 55.4584 60.4584 52.8184 60.4584 49.5651V39.6451C60.4584 37.6584 59.4851 35.9117 57.9784 34.8451ZM50.3117 47.9117H43.9251C43.4051 47.9117 43.0051 47.4984 43.0051 46.9784C43.0051 46.4717 43.4051 46.0451 43.9251 46.0451H50.3117C50.8317 46.0451 51.2451 46.4717 51.2451 46.9784C51.2451 47.4984 50.8317 47.9117 50.3117 47.9117Z" fill="white"/>
<mask id="mask0_11_4461" style="mask-type:alpha" maskUnits="userSpaceOnUse" x="14" y="31" width="227" height="87">
<rect x="14.125" y="31.125" width="226" height="86" fill="#D9D9D9"/>
</mask>
<g mask="url(#mask0_11_4461)">
<path d="M14.2575 131.806V113.229C13.4523 104.596 15.4226 87.4703 45.961 85.338C74.0092 83.3796 79.9784 79.4261 94.6779 53.6553C106.778 32.4422 125.251 32.0404 142.168 31.6725C144.384 31.6243 146.574 31.5767 148.719 31.4829C160.088 30.986 197.206 30.9268 222.625 31.1253C251.125 31.1248 240.125 28.8348 240.125 39.6255V223.412C240.125 234.299 231.271 243.125 220.35 243.125H33.9C22.9786 243.125 14.125 234.299 14.125 223.412V131.806H14.2575Z" fill="white"/>
</g>
<defs>
<filter id="filter0_f_11_4461" x="0" y="0" width="94.25" height="94.25" filterUnits="userSpaceOnUse" color-interpolation-filters="sRGB">
<feFlood flood-opacity="0" result="BackgroundImageFix"/>
<feBlend mode="normal" in="SourceGraphic" in2="BackgroundImageFix" result="shape"/>
<feGaussianBlur stdDeviation="7.0625" result="effect1_foregroundBlur_11_4461"/>
</filter>
</defs>
</svg>
