<svg width="241" height="118" viewBox="0 0 241 118" fill="none" xmlns="http://www.w3.org/2000/svg">
<path d="M14.125 59.125C14.125 31.5108 36.5108 9.125 64.125 9.125H240.125V117.125H14.125V59.125Z" fill="#F2F4F8"/>
<g opacity="0.4" filter="url(#filter0_f_11_4474)">
<circle cx="47.125" cy="47.125" r="33" fill="#EFCB68"/>
</g>
<circle cx="47.125" cy="42.125" r="33" fill="#EFCB68"/>
<path d="M61.303 34.7178C60.3643 31.535 57.7096 28.8803 54.5269 27.9416C52.1068 27.2376 50.4348 27.2963 49.2761 28.1617C47.8828 29.203 47.7214 31.0804 47.7214 32.4151V36.0671C47.7214 39.6752 49.3641 41.5085 52.5909 41.5085H56.8003C58.1203 41.5085 60.0123 41.3472 61.0537 39.9538C61.9483 38.8098 62.0217 37.1378 61.303 34.7178Z" fill="white"/>
<path d="M57.2565 44.1196C56.8752 43.6796 56.3178 43.4303 55.7458 43.4303H50.4951C47.9137 43.4303 45.8163 41.3329 45.8163 38.7515V33.5008C45.8163 32.9288 45.567 32.3714 45.127 31.9901C44.7016 31.6087 44.115 31.4327 43.5576 31.5061C40.1109 31.9461 36.9428 33.8381 34.8748 36.6835C32.7921 39.5435 32.0294 43.0343 32.6894 46.525C33.6428 51.5704 37.6762 55.6038 42.7363 56.5572C43.543 56.7185 44.3496 56.7918 45.1563 56.7918C47.811 56.7918 50.3777 55.9705 52.5631 54.3718C55.4085 52.3037 57.3005 49.1357 57.7405 45.689C57.8139 45.117 57.6379 44.545 57.2565 44.1196Z" fill="white"/>
<mask id="mask0_11_4474" style="mask-type:alpha" maskUnits="userSpaceOnUse" x="14" y="31" width="227" height="87">
<rect x="14.125" y="31.125" width="226" height="86" fill="#D9D9D9"/>
</mask>
<g mask="url(#mask0_11_4474)">
<path d="M14.2575 131.806V113.229C13.4523 104.596 15.4226 87.4703 45.961 85.338C74.0092 83.3796 79.9784 79.4261 94.6779 53.6553C106.778 32.4422 125.251 32.0404 142.168 31.6725C144.384 31.6243 146.574 31.5767 148.719 31.4829C160.088 30.986 197.206 30.9268 222.625 31.1253C251.125 31.1248 240.125 28.8348 240.125 39.6255V223.412C240.125 234.299 231.271 243.125 220.35 243.125H33.9C22.9786 243.125 14.125 234.299 14.125 223.412V131.806H14.2575Z" fill="white"/>
</g>
<defs>
<filter id="filter0_f_11_4474" x="0" y="0" width="94.25" height="94.25" filterUnits="userSpaceOnUse" color-interpolation-filters="sRGB">
<feFlood flood-opacity="0" result="BackgroundImageFix"/>
<feBlend mode="normal" in="SourceGraphic" in2="BackgroundImageFix" result="shape"/>
<feGaussianBlur stdDeviation="7.0625" result="effect1_foregroundBlur_11_4474"/>
</filter>
</defs>
</svg>
