<svg width="309" height="81" viewBox="0 0 309 81" fill="none" xmlns="http://www.w3.org/2000/svg">
<path d="M120.71 53.7349C118.964 53.7349 117.392 53.4356 115.996 52.8369C114.599 52.2133 113.501 51.3403 112.703 50.2178C111.905 49.0953 111.506 47.7858 111.506 46.2891H116.07C116.17 47.4116 116.607 48.3345 117.38 49.0579C118.178 49.7813 119.288 50.143 120.71 50.143C122.182 50.143 123.329 49.7938 124.152 49.0953C124.975 48.3719 125.387 47.449 125.387 46.3265C125.387 45.4535 125.125 44.7426 124.601 44.1938C124.102 43.645 123.466 43.221 122.693 42.9217C121.945 42.6223 120.897 42.2981 119.55 41.9488C117.854 41.4998 116.469 41.0508 115.397 40.6019C114.349 40.1279 113.451 39.4045 112.703 38.4317C111.955 37.4589 111.58 36.1618 111.58 34.5404C111.58 33.0438 111.955 31.7342 112.703 30.6117C113.451 29.4893 114.499 28.6287 115.846 28.03C117.193 27.4314 118.752 27.132 120.523 27.132C123.042 27.132 125.1 27.7681 126.697 29.0403C128.318 30.2875 129.216 32.0086 129.391 34.2037H124.676C124.601 33.2558 124.152 32.4451 123.329 31.7716C122.506 31.0981 121.421 30.7614 120.074 30.7614C118.852 30.7614 117.854 31.0732 117.081 31.6968C116.307 32.3204 115.921 33.2184 115.921 34.3908C115.921 35.189 116.158 35.85 116.632 36.3738C117.13 36.8727 117.754 37.2718 118.502 37.5711C119.251 37.8705 120.273 38.1947 121.571 38.544C123.292 39.0179 124.689 39.4918 125.761 39.9658C126.859 40.4397 127.782 41.1756 128.53 42.1733C129.303 43.1461 129.69 44.4557 129.69 46.102C129.69 47.4241 129.328 48.6713 128.605 49.8436C127.906 51.016 126.871 51.9639 125.499 52.6873C124.152 53.3857 122.556 53.7349 120.71 53.7349ZM133.301 43.0713C133.301 41.001 133.725 39.1676 134.573 37.5711C135.446 35.9747 136.619 34.74 138.09 33.8669C139.587 32.969 141.233 32.52 143.029 32.52C144.651 32.52 146.06 32.8442 147.257 33.4928C148.48 34.1164 149.452 34.9021 150.176 35.85V32.8567H154.479V53.473H150.176V50.4049C149.452 51.3777 148.467 52.1884 147.22 52.8369C145.973 53.4855 144.551 53.8098 142.954 53.8098C141.183 53.8098 139.562 53.3608 138.09 52.4628C136.619 51.5398 135.446 50.2677 134.573 48.6463C133.725 47 133.301 45.1417 133.301 43.0713ZM150.176 43.1461C150.176 41.7243 149.876 40.4896 149.278 39.442C148.704 38.3943 147.943 37.5961 146.995 37.0473C146.048 36.4985 145.025 36.2242 143.927 36.2242C142.83 36.2242 141.807 36.4985 140.859 37.0473C139.911 37.5711 139.138 38.3569 138.539 39.4045C137.966 40.4272 137.679 41.6495 137.679 43.0713C137.679 44.4931 137.966 45.7403 138.539 46.8129C139.138 47.8855 139.911 48.7087 140.859 49.2824C141.832 49.8312 142.855 50.1056 143.927 50.1056C145.025 50.1056 146.048 49.8312 146.995 49.2824C147.943 48.7336 148.704 47.9354 149.278 46.8878C149.876 45.8152 150.176 44.568 150.176 43.1461ZM165.057 36.3364V47.7483C165.057 48.5216 165.232 49.0828 165.581 49.4321C165.955 49.7563 166.579 49.9185 167.452 49.9185H170.071V53.473H166.704C164.783 53.473 163.311 53.024 162.289 52.126C161.266 51.228 160.755 49.7688 160.755 47.7483V36.3364H158.323V32.8567H160.755V27.7307H165.057V32.8567H170.071V36.3364H165.057ZM192.673 32.8567V53.473H188.408V51.041C187.734 51.8891 186.849 52.5625 185.751 53.0614C184.679 53.5354 183.531 53.7723 182.309 53.7723C180.688 53.7723 179.228 53.4356 177.931 52.7621C176.659 52.0886 175.649 51.0908 174.901 49.7688C174.177 48.4468 173.815 46.8503 173.815 44.9795V32.8567H178.043V44.3435C178.043 46.1893 178.505 47.6111 179.428 48.6089C180.351 49.5817 181.61 50.0681 183.207 50.0681C184.803 50.0681 186.063 49.5817 186.986 48.6089C187.934 47.6111 188.408 46.1893 188.408 44.3435V32.8567H192.673ZM196.879 40.4148C196.879 37.8705 197.465 35.5881 198.638 33.5676C199.835 31.5471 201.444 29.9757 203.465 28.8532C205.51 27.7058 207.742 27.132 210.162 27.132C212.931 27.132 215.388 27.818 217.533 29.1899C219.703 30.5369 221.275 32.4576 222.247 34.952H217.121C216.448 33.5801 215.513 32.5574 214.315 31.8839C213.118 31.2104 211.734 30.8737 210.162 30.8737C208.441 30.8737 206.907 31.2603 205.56 32.0336C204.213 32.8068 203.153 33.9168 202.379 35.3636C201.631 36.8103 201.257 38.4941 201.257 40.4148C201.257 42.3355 201.631 44.0192 202.379 45.466C203.153 46.9127 204.213 48.0352 205.56 48.8334C206.907 49.6067 208.441 49.9933 210.162 49.9933C211.734 49.9933 213.118 49.6566 214.315 48.9831C215.513 48.3096 216.448 47.2869 217.121 45.9149H222.247C221.275 48.4094 219.703 50.3301 217.533 51.677C215.388 53.024 212.931 53.6975 210.162 53.6975C207.718 53.6975 205.485 53.1363 203.465 52.0138C201.444 50.8663 199.835 49.2824 198.638 47.2619C197.465 45.2415 196.879 42.9591 196.879 40.4148ZM231.506 25.7851V53.473H227.24V25.7851H231.506ZM246.048 53.8098C244.103 53.8098 242.344 53.3732 240.773 52.5002C239.201 51.6022 237.966 50.355 237.068 48.7586C236.17 47.1372 235.721 45.2664 235.721 43.1461C235.721 41.0508 236.183 39.1925 237.106 37.5711C238.029 35.9498 239.288 34.7026 240.885 33.8295C242.481 32.9565 244.265 32.52 246.235 32.52C248.206 32.52 249.989 32.9565 251.586 33.8295C253.182 34.7026 254.442 35.9498 255.365 37.5711C256.288 39.1925 256.749 41.0508 256.749 43.1461C256.749 45.2415 256.275 47.0998 255.327 48.7212C254.38 50.3425 253.082 51.6022 251.436 52.5002C249.815 53.3732 248.019 53.8098 246.048 53.8098ZM246.048 50.1056C247.146 50.1056 248.168 49.8436 249.116 49.3198C250.089 48.796 250.875 48.0102 251.474 46.9626C252.072 45.9149 252.372 44.6428 252.372 43.1461C252.372 41.6495 252.085 40.3898 251.511 39.3671C250.937 38.3195 250.176 37.5337 249.229 37.0099C248.281 36.4861 247.258 36.2242 246.16 36.2242C245.063 36.2242 244.04 36.4861 243.092 37.0099C242.169 37.5337 241.434 38.3195 240.885 39.3671C240.336 40.3898 240.062 41.6495 240.062 43.1461C240.062 45.3662 240.623 47.0873 241.745 48.3096C242.893 49.5069 244.327 50.1056 246.048 50.1056ZM279.637 32.8567V53.473H275.371V51.041C274.698 51.8891 273.812 52.5625 272.715 53.0614C271.642 53.5354 270.494 53.7723 269.272 53.7723C267.651 53.7723 266.192 53.4356 264.895 52.7621C263.622 52.0886 262.612 51.0908 261.864 49.7688C261.14 48.4468 260.779 46.8503 260.779 44.9795V32.8567H265.007V44.3435C265.007 46.1893 265.468 47.6111 266.391 48.6089C267.314 49.5817 268.574 50.0681 270.17 50.0681C271.767 50.0681 273.026 49.5817 273.949 48.6089C274.897 47.6111 275.371 46.1893 275.371 44.3435V32.8567H279.637ZM283.843 43.0713C283.843 41.001 284.267 39.1676 285.115 37.5711C285.988 35.9747 287.16 34.74 288.632 33.8669C290.129 32.969 291.787 32.52 293.608 32.52C294.955 32.52 296.277 32.8193 297.574 33.418C298.896 33.9917 299.944 34.7649 300.717 35.7378V25.7851H305.02V53.473H300.717V50.3675C300.019 51.3652 299.046 52.1884 297.799 52.8369C296.577 53.4855 295.167 53.8098 293.571 53.8098C291.775 53.8098 290.129 53.3608 288.632 52.4628C287.16 51.5398 285.988 50.2677 285.115 48.6463C284.267 47 283.843 45.1417 283.843 43.0713ZM300.717 43.1461C300.717 41.7243 300.418 40.4896 299.819 39.442C299.246 38.3943 298.485 37.5961 297.537 37.0473C296.589 36.4985 295.566 36.2242 294.469 36.2242C293.371 36.2242 292.349 36.4985 291.401 37.0473C290.453 37.5711 289.68 38.3569 289.081 39.4045C288.507 40.4272 288.22 41.6495 288.22 43.0713C288.22 44.4931 288.507 45.7403 289.081 46.8129C289.68 47.8855 290.453 48.7087 291.401 49.2824C292.374 49.8312 293.396 50.1056 294.469 50.1056C295.566 50.1056 296.589 49.8312 297.537 49.2824C298.485 48.7336 299.246 47.9354 299.819 46.8878C300.418 45.8152 300.717 44.568 300.717 43.1461Z" fill="white"/>
<rect x="18.1045" width="49.8874" height="48.9487" rx="24.4743" fill="#DCEAF4"/>
<rect x="50.8262" y="18.9089" width="34.3311" height="38.3543" rx="17.1656" fill="#DCEAF4"/>
<rect y="26.0166" width="79.1225" height="39.5612" rx="19.7806" fill="#DCEAF4"/>
<rect x="39.9634" y="32.3195" width="56.3245" height="33.2583" rx="16.6291" fill="#DCEAF4"/>
<rect x="25.8826" y="15.4222" width="49.8874" height="48.9487" rx="24.4743" fill="#79AED5"/>
<rect x="58.6042" y="34.3311" width="34.3311" height="38.3543" rx="17.1656" fill="#79AED5"/>
<rect x="7.77808" y="41.4387" width="79.1225" height="39.5612" rx="19.7806" fill="#79AED5"/>
<rect x="47.7415" y="47.7417" width="56.3245" height="33.2583" rx="16.6291" fill="#79AED5"/>
<rect x="27.894" y="72.9536" width="31.7831" height="3.35265" rx="1.67632" fill="#4A728F"/>
<rect x="27.894" y="66.2483" width="61.2864" height="3.35265" rx="1.67632" fill="#4A728F"/>
<rect x="27.894" y="59.543" width="61.2864" height="3.35265" rx="1.67632" fill="#4A728F"/>
<rect x="27.894" y="52.1672" width="61.2864" height="3.35265" rx="1.67632" fill="#4A728F"/>
<rect x="27.894" y="44.7914" width="23.0662" height="3.35265" rx="1.67632" fill="#4A728F"/>
</svg>
