<svg width="776" height="604" viewBox="0 0 776 604" fill="none" xmlns="http://www.w3.org/2000/svg">
<rect x="135" width="372" height="365" rx="182.5" fill="#DCEAF4"/>
<rect x="379" y="141" width="256" height="286" rx="128" fill="#DCEAF4"/>
<rect y="194" width="590" height="295" rx="147.5" fill="#DCEAF4"/>
<rect x="298" y="241" width="420" height="248" rx="124" fill="#DCEAF4"/>
<rect x="193" y="115" width="372" height="365" rx="182.5" fill="#79AED5"/>
<rect x="437" y="256" width="256" height="286" rx="128" fill="#79AED5"/>
<rect x="58" y="309" width="590" height="295" rx="147.5" fill="#79AED5"/>
<rect x="356" y="356" width="420" height="248" rx="124" fill="#79AED5"/>
<rect x="208" y="544" width="237" height="25" rx="12.5" fill="#4A728F"/>
<rect x="208" y="494" width="457" height="25" rx="12.5" fill="#4A728F"/>
<rect x="208" y="444" width="457" height="25" rx="12.5" fill="#4A728F"/>
<rect x="208" y="389" width="457" height="25" rx="12.5" fill="#4A728F"/>
<rect x="208" y="334" width="172" height="25" rx="12.5" fill="#4A728F"/>
</svg>
