<svg width="1896" height="498" viewBox="0 0 1896 498" fill="none" xmlns="http://www.w3.org/2000/svg">
<path d="M814.283 323.086C804.95 323.086 796.55 321.486 789.083 318.286C781.616 314.953 775.75 310.286 771.483 304.286C767.216 298.286 765.083 291.286 765.083 283.286H789.483C790.016 289.286 792.35 294.219 796.483 298.086C800.75 301.953 806.683 303.886 814.283 303.886C822.15 303.886 828.283 302.019 832.683 298.286C837.083 294.419 839.283 289.486 839.283 283.486C839.283 278.819 837.883 275.019 835.083 272.086C832.416 269.153 829.016 266.886 824.883 265.286C820.883 263.686 815.283 261.953 808.083 260.086C799.016 257.686 791.616 255.286 785.883 252.886C780.283 250.353 775.483 246.486 771.483 241.286C767.483 236.086 765.483 229.153 765.483 220.486C765.483 212.486 767.483 205.486 771.483 199.486C775.483 193.486 781.083 188.886 788.283 185.686C795.483 182.486 803.816 180.886 813.283 180.886C826.75 180.886 837.75 184.286 846.283 191.086C854.95 197.753 859.75 206.953 860.683 218.686H835.483C835.083 213.619 832.683 209.286 828.283 205.686C823.883 202.086 818.083 200.286 810.883 200.286C804.35 200.286 799.016 201.953 794.883 205.286C790.75 208.619 788.683 213.419 788.683 219.686C788.683 223.953 789.95 227.486 792.483 230.286C795.15 232.953 798.483 235.086 802.483 236.686C806.483 238.286 811.95 240.019 818.883 241.886C828.083 244.419 835.55 246.953 841.283 249.486C847.15 252.019 852.083 255.953 856.083 261.286C860.216 266.486 862.283 273.486 862.283 282.286C862.283 289.353 860.35 296.019 856.483 302.286C852.75 308.553 847.216 313.619 839.883 317.486C832.683 321.219 824.15 323.086 814.283 323.086ZM881.586 266.086C881.586 255.019 883.853 245.219 888.386 236.686C893.053 228.153 899.319 221.553 907.186 216.886C915.186 212.086 923.986 209.686 933.586 209.686C942.253 209.686 949.786 211.419 956.186 214.886C962.719 218.219 967.919 222.419 971.786 227.486V211.486H994.786V321.686H971.786V305.286C967.919 310.486 962.653 314.819 955.986 318.286C949.319 321.753 941.719 323.486 933.186 323.486C923.719 323.486 915.053 321.086 907.186 316.286C899.319 311.353 893.053 304.553 888.386 295.886C883.853 287.086 881.586 277.153 881.586 266.086ZM971.786 266.486C971.786 258.886 970.186 252.286 966.986 246.686C963.919 241.086 959.853 236.819 954.786 233.886C949.719 230.953 944.253 229.486 938.386 229.486C932.519 229.486 927.053 230.953 921.986 233.886C916.919 236.686 912.786 240.886 909.586 246.486C906.519 251.953 904.986 258.486 904.986 266.086C904.986 273.686 906.519 280.353 909.586 286.086C912.786 291.819 916.919 296.219 921.986 299.286C927.186 302.219 932.653 303.686 938.386 303.686C944.253 303.686 949.719 302.219 954.786 299.286C959.853 296.353 963.919 292.086 966.986 286.486C970.186 280.753 971.786 274.086 971.786 266.486ZM1051.33 230.086V291.086C1051.33 295.219 1052.27 298.219 1054.13 300.086C1056.13 301.819 1059.47 302.686 1064.13 302.686H1078.13V321.686H1060.13C1049.87 321.686 1042 319.286 1036.53 314.486C1031.07 309.686 1028.33 301.886 1028.33 291.086V230.086H1015.33V211.486H1028.33V184.086H1051.33V211.486H1078.13V230.086H1051.33ZM1198.95 211.486V321.686H1176.15V308.686C1172.55 313.219 1167.81 316.819 1161.95 319.486C1156.21 322.019 1150.08 323.286 1143.55 323.286C1134.88 323.286 1127.08 321.486 1120.15 317.886C1113.35 314.286 1107.95 308.953 1103.95 301.886C1100.08 294.819 1098.15 286.286 1098.15 276.286V211.486H1120.75V272.886C1120.75 282.753 1123.21 290.353 1128.15 295.686C1133.08 300.886 1139.81 303.486 1148.35 303.486C1156.88 303.486 1163.61 300.886 1168.55 295.686C1173.61 290.353 1176.15 282.753 1176.15 272.886V211.486H1198.95ZM1221.43 251.886C1221.43 238.286 1224.56 226.086 1230.83 215.286C1237.23 204.486 1245.83 196.086 1256.63 190.086C1267.56 183.953 1279.5 180.886 1292.43 180.886C1307.23 180.886 1320.36 184.553 1331.83 191.886C1343.43 199.086 1351.83 209.353 1357.03 222.686H1329.63C1326.03 215.353 1321.03 209.886 1314.63 206.286C1308.23 202.686 1300.83 200.886 1292.43 200.886C1283.23 200.886 1275.03 202.953 1267.83 207.086C1260.63 211.219 1254.96 217.153 1250.83 224.886C1246.83 232.619 1244.83 241.619 1244.83 251.886C1244.83 262.153 1246.83 271.153 1250.83 278.886C1254.96 286.619 1260.63 292.619 1267.83 296.886C1275.03 301.019 1283.23 303.086 1292.43 303.086C1300.83 303.086 1308.23 301.286 1314.63 297.686C1321.03 294.086 1326.03 288.619 1329.63 281.286H1357.03C1351.83 294.619 1343.43 304.886 1331.83 312.086C1320.36 319.286 1307.23 322.886 1292.43 322.886C1279.36 322.886 1267.43 319.886 1256.63 313.886C1245.83 307.753 1237.23 299.286 1230.83 288.486C1224.56 277.686 1221.43 265.486 1221.43 251.886ZM1406.52 173.686V321.686H1383.72V173.686H1406.52ZM1484.25 323.486C1473.85 323.486 1464.45 321.153 1456.05 316.486C1447.65 311.686 1441.05 305.019 1436.25 296.486C1431.45 287.819 1429.05 277.819 1429.05 266.486C1429.05 255.286 1431.52 245.353 1436.45 236.686C1441.39 228.019 1448.12 221.353 1456.65 216.686C1465.19 212.019 1474.72 209.686 1485.25 209.686C1495.79 209.686 1505.32 212.019 1513.85 216.686C1522.39 221.353 1529.12 228.019 1534.05 236.686C1538.99 245.353 1541.45 255.286 1541.45 266.486C1541.45 277.686 1538.92 287.619 1533.85 296.286C1528.79 304.953 1521.85 311.686 1513.05 316.486C1504.39 321.153 1494.79 323.486 1484.25 323.486ZM1484.25 303.686C1490.12 303.686 1495.59 302.286 1500.65 299.486C1505.85 296.686 1510.05 292.486 1513.25 286.886C1516.45 281.286 1518.05 274.486 1518.05 266.486C1518.05 258.486 1516.52 251.753 1513.45 246.286C1510.39 240.686 1506.32 236.486 1501.25 233.686C1496.19 230.886 1490.72 229.486 1484.85 229.486C1478.99 229.486 1473.52 230.886 1468.45 233.686C1463.52 236.486 1459.59 240.686 1456.65 246.286C1453.72 251.753 1452.25 258.486 1452.25 266.486C1452.25 278.353 1455.25 287.553 1461.25 294.086C1467.39 300.486 1475.05 303.686 1484.25 303.686ZM1663.79 211.486V321.686H1640.99V308.686C1637.39 313.219 1632.66 316.819 1626.79 319.486C1621.06 322.019 1614.92 323.286 1608.39 323.286C1599.72 323.286 1591.92 321.486 1584.99 317.886C1578.19 314.286 1572.79 308.953 1568.79 301.886C1564.92 294.819 1562.99 286.286 1562.99 276.286V211.486H1585.59V272.886C1585.59 282.753 1588.06 290.353 1592.99 295.686C1597.92 300.886 1604.66 303.486 1613.19 303.486C1621.72 303.486 1628.46 300.886 1633.39 295.686C1638.46 290.353 1640.99 282.753 1640.99 272.886V211.486H1663.79ZM1686.27 266.086C1686.27 255.019 1688.54 245.219 1693.07 236.686C1697.74 228.153 1704.01 221.553 1711.87 216.886C1719.87 212.086 1728.74 209.686 1738.47 209.686C1745.67 209.686 1752.74 211.286 1759.67 214.486C1766.74 217.553 1772.34 221.686 1776.47 226.886V173.686H1799.47V321.686H1776.47V305.086C1772.74 310.419 1767.54 314.819 1760.87 318.286C1754.34 321.753 1746.81 323.486 1738.27 323.486C1728.67 323.486 1719.87 321.086 1711.87 316.286C1704.01 311.353 1697.74 304.553 1693.07 295.886C1688.54 287.086 1686.27 277.153 1686.27 266.086ZM1776.47 266.486C1776.47 258.886 1774.87 252.286 1771.67 246.686C1768.61 241.086 1764.54 236.819 1759.47 233.886C1754.41 230.953 1748.94 229.486 1743.07 229.486C1737.21 229.486 1731.74 230.953 1726.67 233.886C1721.61 236.686 1717.47 240.886 1714.27 246.486C1711.21 251.953 1709.67 258.486 1709.67 266.086C1709.67 273.686 1711.21 280.353 1714.27 286.086C1717.47 291.819 1721.61 296.219 1726.67 299.286C1731.87 302.219 1737.34 303.686 1743.07 303.686C1748.94 303.686 1754.41 302.219 1759.47 299.286C1764.54 296.353 1768.61 292.086 1771.67 286.486C1774.87 280.753 1776.47 274.086 1776.47 266.486Z" fill="black"/>
<rect x="111.308" width="306.715" height="300.944" rx="150.472" fill="#DCEAF4"/>
<rect x="312.487" y="116.255" width="211.073" height="235.808" rx="105.536" fill="#DCEAF4"/>
<rect y="159.954" width="486.457" height="243.228" rx="121.614" fill="#DCEAF4"/>
<rect x="245.702" y="198.705" width="346.291" height="204.477" rx="102.238" fill="#DCEAF4"/>
<rect x="159.13" y="94.8179" width="306.715" height="300.944" rx="150.472" fill="#79AED5"/>
<rect x="360.308" y="211.073" width="211.073" height="235.808" rx="105.536" fill="#79AED5"/>
<rect x="47.8208" y="254.771" width="486.457" height="243.228" rx="121.614" fill="#79AED5"/>
<rect x="293.522" y="293.523" width="346.291" height="204.477" rx="102.238" fill="#79AED5"/>
<rect x="171.498" y="448.53" width="195.407" height="20.6126" rx="10.3063" fill="#4A728F"/>
<rect x="171.498" y="407.305" width="376.798" height="20.6126" rx="10.3063" fill="#4A728F"/>
<rect x="171.498" y="366.079" width="376.798" height="20.6126" rx="10.3063" fill="#4A728F"/>
<rect x="171.498" y="320.732" width="376.798" height="20.6126" rx="10.3063" fill="#4A728F"/>
<rect x="171.497" y="275.384" width="141.815" height="20.6126" rx="10.3063" fill="#4A728F"/>
</svg>
